<svg viewBox="0 0 1080 1080" fill="none" xmlns="http://www.w3.org/2000/svg">      <defs>  <filter id="filter" x="-20%" y="-20%" width="140%" height="140%" filterUnits="objectBoundingBox" primitiveUnits="userSpaceOnUse" color-interpolation-filters="linearRGB">    <feMorphology operator="dilate" radius="20 20" in="SourceAlpha" result="morphology"/>    <feFlood flood-color="#ffffff" flood-opacity="1" result="flood"/>    <feComposite in="flood" in2="morphology" operator="in" result="composite"/>    <feMerge result="merge">          <feMergeNode in="composite" result="mergeNode"/>      <feMergeNode in="SourceGraphic" result="mergeNode1"/>      </feMerge>  </filter></defs>      <g id="notion-avatar" filter="url(#filter)">        <g id="notion-avatar-face" fill="#ffffff" transform="scale(-1,1) translate(-1080, 0)">      <!--?xml version="1.0" encoding="UTF-8"?-->    <!-- Generator: Sketch 63.1 (92452) - https://sketch.com -->    <title>Face/ 14</title>    <desc>Created with Sketch.</desc>    <g id="Face/-14" stroke="none" stroke-width="1" fill-rule="evenodd" stroke-linecap="round" stroke-linejoin="round">        <path d="M532,379 C664.54834,379 772,486.45166 772,619 C772,642.160109 783.234546,656.244677 777.453024,678.979248 C763.583554,733.517917 758.701879,941.343666 598,909 C539.618945,897.249936 461,880 433,858 C405,836 342.170039,758.772836 320.189513,718.584987 C317.498129,718.859681 314.765451,719 312,719 C267.81722,719 232,683.18278 232,639 C232,599.134956 261.158843,566.080325 299.312086,560.00055 C325.599297,455.979213 419.809919,379 532,379 Z M295.858895,624.545187 L304.141105,655.454813" id="Path" stroke="#000000" stroke-width="24"/>    </g>    </g><g id="notion-avatar-nose" transform="scale(-1,1) translate(-1080, 0)">      <!--?xml version="1.0" encoding="UTF-8"?-->    <title>Nose/ 4</title>    <g id="Nose/-4" stroke="none" stroke-width="1" fill="none" fill-rule="evenodd" stroke-linecap="round" stroke-linejoin="round">        <path d="M636.843426,596.000252 C661.659687,637.453214 673.277876,666.226337 671.697992,682.319621 C670.118108,698.412905 655.181344,703.444023 626.8877,697.412976" id="Line" stroke="#000000" stroke-width="16" transform="translate(649.363766, 647.939652) rotate(1.032339) translate(-649.363766, -647.939652) "/>    </g>    </g><g id="notion-avatar-mouth" transform="scale(-1,1) translate(-1080, 0)">      <!--?xml version="1.0" encoding="UTF-8"?-->    <title>Mouth/ 1</title>    <g id="Mouth/-1" stroke="none" stroke-width="1" fill="none" fill-rule="evenodd" stroke-linecap="round" stroke-linejoin="round">        <path d="M549,759 C575.12979,773.666667 603.12979,781 633,781 C662.87021,781 682.87021,773.666667 693,759" id="Path" stroke="#000000" stroke-width="16"/>    </g>    </g><g id="notion-avatar-eyes" transform="scale(-1,1) translate(-1080, 0)">      <!--?xml version="1.0" encoding="UTF-8"?-->    <title>Eyes/ 4</title>    <g id="Eyes/-4" stroke="none" stroke-width="1" fill="none" fill-rule="evenodd">        <path d="M570,516 C583.254834,516 594,526.745166 594,540 C594,553.254834 583.254834,564 570,564 C556.745166,564 546,553.254834 546,540 C546,526.745166 556.745166,516 570,516 Z M708,516 C721.254834,516 732,526.745166 732,540 C732,553.254834 721.254834,564 708,564 C694.745166,564 684,553.254834 684,540 C684,526.745166 694.745166,516 708,516 Z M562,526 C558.686292,526 556,528.686292 556,532 C556,535.313708 558.686292,538 562,538 C565.313708,538 568,535.313708 568,532 C568,528.686292 565.313708,526 562,526 Z M700,526 C696.686292,526 694,528.686292 694,532 C694,535.313708 696.686292,538 700,538 C703.313708,538 706,535.313708 706,532 C706,528.686292 703.313708,526 700,526 Z" id="Combined-Shape" fill="#000000"/>    </g>    </g><g id="notion-avatar-eyebrows" transform="scale(-1,1) translate(-1080, 0)">      <!--?xml version="1.0" encoding="UTF-8"?-->    <title>Eyebrows/ 6</title>    <g id="Eyebrows/-6" stroke="none" stroke-width="1" fill="none" fill-rule="evenodd" stroke-linecap="round" stroke-linejoin="round">        <path d="M620,495.140162 C589.850248,491.823271 565.234864,491.823271 546.153846,495.140162 C527.072829,498.457053 511.688213,505.410333 500,516 C517.257672,497.488903 532.642287,487.058984 546.153846,484.710243 C559.665405,482.361502 584.280789,485.838142 620,495.140162 Z M658,495.140162 C693.719211,485.838142 718.334595,482.361502 731.846154,484.710243 C745.357713,487.058984 760.742328,497.488903 778,516 C766.311787,505.410333 750.927171,498.457053 731.846154,495.140162 C712.765136,491.823271 688.149752,491.823271 658,495.140162 Z" id="Combined-Shape" stroke="#000000" stroke-width="8" fill="#000000"/>    </g>    </g><g id="notion-avatar-glasses" transform="scale(-1,1) translate(-1080, 0)">      <!--?xml version="1.0" encoding="UTF-8"?-->    <title>Glasses/ 9</title>    <g id="Glasses/-9" stroke="none" stroke-width="1" fill="none" fill-rule="evenodd" stroke-linecap="round" stroke-linejoin="round">        <g id="Group" transform="translate(289.000000, 466.000000)" fill="#000000" stroke="#000000" stroke-width="4">            <path d="M229.149255,5.21037268 C247.672154,10.005924 283.261021,26.6137093 324.690343,43.1526512 L325.464481,43.4558112 C331.11768,45.6282957 339.032765,47.7972932 349.209737,49.9628037 L349.209737,71.3661403 C344.161954,74.4730774 341.061801,77.3917142 339.909277,80.1220507 C325.535839,114.172813 298.479956,136.549029 257.050634,124.874482 C200.767297,109.014157 181.801459,25.6408303 180.110466,12.0205252 C178.419474,-1.59977987 196.205221,-3.31878925 229.149255,5.21037268 Z M470.850745,5.21037268 L472.809163,4.710934 C504.498419,-3.24526836 521.546707,-1.32737377 519.889534,12.0205252 C518.198541,25.6408303 499.232703,109.014157 442.949366,124.874482 C401.520044,136.549029 374.464161,114.172813 360.090723,80.1220507 C358.969348,77.4655071 356.004199,74.630704 351.195275,71.6176415 L350.790263,71.3661403 L350.790263,49.9628037 L352.195626,49.6606168 C362.16219,47.4947819 369.866867,45.3254601 375.309657,43.1526512 L377.788318,42.1603271 C418.155707,25.9541227 452.698304,9.91001298 470.850745,5.21037268 Z" id="Combined-Shape"/>            <polygon id="Path" points="199 43 4 75 0 84 199 64"/>        </g>    </g>    </g><g id="notion-avatar-hair" transform="scale(-1,1) translate(-1080, 0)">      <!--?xml version="1.0" encoding="UTF-8"?-->    <title>Hairstyle/ 10</title>    <g id="Hairstyle/-10" stroke="none" stroke-width="1" fill="none" fill-rule="evenodd" stroke-linecap="round" stroke-linejoin="round">        <path d="M372.389019,247.786108 C470.684335,198.180121 573.70651,196.436019 608.362378,256.461743 C610.594634,260.328124 612.477899,264.333125 614.022301,268.457607 C631.340767,263.485869 647,261 661,261 C682,261 743,269 760,290 C777,311 777,343 753,387 C737,416.333333 714,434 684,440 C625.671273,414 577.671273,401 540,401 C502.328727,401 464.662061,403.666667 427,409 C427.442658,419.124205 429.109325,429.457538 432,440 C434.890675,450.542462 438.890675,460.875795 444,471 C418.42303,487.163731 403.86212,499.704664 400.317272,508.622798 C395,522 390.731457,594.198681 386.316755,653.134075 L386.17725,655 L366.146153,655 L328.203914,564.824988 L287.169322,564.824988 C280.297784,539.338819 275.760795,517.438139 273.558355,499.122947 C267.794015,498.334154 260.905776,498.267484 252.894736,498.92407 L252,499 L242.594545,455.98087 L211.196591,446.233717 C244.398864,351.411239 298.129673,285.262036 372.389019,247.786108 Z" id="Path" stroke="#000000" stroke-width="12" fill="#000000"/>    </g>    </g><g id="notion-avatar-accessories" transform="scale(-1,1) translate(-1080, 0)">      <g id="Accessories/ 14"><g id="Group"><path id="Path" d="M287.695 658.293C276.76 647.358 276.76 629.63 287.695 618.695C298.63 607.76 316.358 607.76 327.293 618.695C337.267 628.669 338.143 644.297 329.921 655.264L362.083 687.426C366.925 692.268 366.925 700.119 362.083 704.962C357.24 709.804 349.389 709.804 344.547 704.962L306.04 666.456C299.371 666.111 292.792 663.389 287.695 658.293Z" fill="white" stroke="black" stroke-width="8" stroke-linecap="round" stroke-linejoin="round"/><rect id="Rectangle" width="8" height="16" rx="4" transform="matrix(-0.707107 0.707107 0.707107 0.707107 295.615 623.221)" fill="black"/></g></g>    </g><g id="notion-avatar-details" transform="scale(-1,1) translate(-1080, 0)">      <!--?xml version="1.0" encoding="UTF-8"?-->    <title>Details/ 0</title>    <g id="Details/-0" stroke="none" stroke-width="1" fill="none" fill-rule="evenodd"/>    </g><g id="notion-avatar-beard" transform="scale(-1,1) translate(-1080, 0)">      <!--?xml version="1.0" encoding="UTF-8"?-->    <title>Beard/ 0</title>    <g id="Beard/-0" stroke="none" stroke-width="1" fill="none" fill-rule="evenodd"/>    </g>      </g>      </svg>